<svg width="56" height="32" viewBox="0 0 56 32" fill="none" xmlns="http://www.w3.org/2000/svg">
<path d="M51.8861 8H37.6836C36.3202 8 35.0737 8.74901 34.464 9.93475L26.5283 25.3666C24.4377 29.432 20.1642 32 15.4895 32H9.26826C2.38728 32 -2.08811 24.9592 0.989158 18.9751L4.57602 12H21.7746L17.6607 20H9.71842L9.14989 21.1056C8.46605 22.4354 9.46058 24 10.9897 24H15.75C17.1135 24 18.3599 23.251 18.9697 22.0652L26.9053 6.63344C28.9959 2.56803 33.2694 0 37.9441 0H56L51.8861 8Z" fill="var(--color-icon)">
<path d="M43.7152 20H31.6591L35.773 12H47.8291L43.7152 20Z" fill="var(--color-icon)"/>
</svg>
