<svg width="24" height="24" viewBox="0 0 24 24" fill="none" xmlns="http://www.w3.org/2000/svg">
<path class="morph-ray-11" d="M8.37805 5.71948L8.38305 5.72814" stroke="currentColor" stroke-width="1.5" stroke-linecap="round" stroke-linejoin="round"/>
<path class="morph-ray-10" d="M5.72437 8.37317L5.73303 8.37817" stroke="currentColor" stroke-width="1.5" stroke-linecap="round" stroke-linejoin="round"/>
<path class="morph-ray-9" d="M4.75061 11.9975L4.76061 11.9975" stroke="currentColor" stroke-width="1.5" stroke-linecap="round" stroke-linejoin="round"/>
<path class="morph-ray-8" d="M5.72192 15.6225L5.73058 15.6175" stroke="currentColor" stroke-width="1.5" stroke-linecap="round" stroke-linejoin="round"/>
<path class="morph-ray-7" d="M8.37561 18.2762L8.38061 18.2675" stroke="currentColor" stroke-width="1.5" stroke-linecap="round" stroke-linejoin="round"/>
<path class="morph-ray-6" d="M12 19.25L12 19.24" stroke="currentColor" stroke-width="1.5" stroke-linecap="round" stroke-linejoin="round"/>
<path class="morph-ray-5" d="M15.628 18.2768L15.623 18.2682" stroke="currentColor" stroke-width="1.5" stroke-linecap="round" stroke-linejoin="round"/>
<path class="morph-ray-4" d="M18.2819 15.6232L18.2732 15.6182" stroke="currentColor" stroke-width="1.5" stroke-linecap="round" stroke-linejoin="round"/>
<path class="morph-ray-3" d="M19.2506 11.9975L19.2406 11.9975" stroke="currentColor" stroke-width="1.5" stroke-linecap="round" stroke-linejoin="round"/>
<path class="morph-ray-2" d="M18.2793 8.3725L18.2706 8.3775" stroke="currentColor" stroke-width="1.5" stroke-linecap="round" stroke-linejoin="round"/>
<path class="morph-ray-1" d="M15.6257 5.71881L15.6207 5.72747" stroke="currentColor" stroke-width="1.5" stroke-linecap="round" stroke-linejoin="round"/>
<path class="morph-ray-12" d="M12 4.75V4.76" stroke="currentColor" stroke-width="1.5" stroke-linecap="round" stroke-linejoin="round"/>
<path class="morph-body" d="M18.2761 15.6319C17.0216 17.7951 14.6807 19.25 12 19.25C7.99594 19.25 4.75 16.0041 4.75 12C4.75 9.31704 6.20737 6.97445 8.37366 5.7207C8.37366 11.5 12.5 15.6319 18.2761 15.6319Z" stroke="currentColor" stroke-width="1.5" stroke-linecap="round" stroke-linejoin="round"/>
</svg>
