<svg class="theme-icon" width="24" height="24" viewBox="0 0 24 24" fill="none" xmlns="http://www.w3.org/2000/svg">
<path class="morph-ray-11" d="M8.12988 5.2883L8.87988 6.58734" stroke=" currentColor" stroke-width="1.5" stroke-linecap="round" stroke-linejoin="round"/>
<path class="morph-ray-10" d="M3.9917 7.3707L6.58978 8.8707" stroke=" currentColor" stroke-width="1.5" stroke-linecap="round" stroke-linejoin="round"/>
<path class="morph-ray-9" d="M4.25061 11.9975L5.75061 11.9975" stroke=" currentColor" stroke-width="1.5" stroke-linecap="round" stroke-linejoin="round"/>
<path class="morph-ray-8" d="M3.99182 16.6207L6.5899 15.1207" stroke=" currentColor" stroke-width="1.5" stroke-linecap="round" stroke-linejoin="round"/>
<path class="morph-ray-7" d="M8.12561 18.7092L8.87561 17.4102" stroke=" currentColor" stroke-width="1.5" stroke-linecap="round" stroke-linejoin="round"/>
<path class="morph-ray-6" d="M12 21.25V18.25" stroke=" currentColor" stroke-width="1.5" stroke-linecap="round" stroke-linejoin="round"/>
<path class="morph-ray-5" d="M15.8799 18.7117L15.1299 17.4127" stroke=" currentColor" stroke-width="1.5" stroke-linecap="round" stroke-linejoin="round"/>
<path class="morph-ray-4" d="M20.0132 16.6206L17.4152 15.1206" stroke=" currentColor" stroke-width="1.5" stroke-linecap="round" stroke-linejoin="round"/>
<path class="morph-ray-3" d="M19.7506 11.9975H18.2506" stroke=" currentColor" stroke-width="1.5" stroke-linecap="round" stroke-linejoin="round"/>
<path class="morph-ray-2" d="M20.0132 7.37067L17.4152 8.87067" stroke=" currentColor" stroke-width="1.5" stroke-linecap="round" stroke-linejoin="round"/>
<path class="morph-ray-1" d="M15.8756 5.2858L15.1256 6.58484" stroke=" currentColor" stroke-width="1.5" stroke-linecap="round" stroke-linejoin="round"/>
<path class="morph-ray-12" d="M12 2.75V5.75" stroke=" currentColor" stroke-width="1.5" stroke-linecap="round" stroke-linejoin="round"/>
<path class="morph-body" d="M18.25 12C18.25 15.4518 15.4518 18.25 12 18.25C8.54822 18.25 5.75 15.4518 5.75 12C5.75 8.54822 8.54822 5.75 12 5.75C15.4518 5.75 18.25 8.54822 18.25 12Z" stroke=" currentColor" stroke-width="1.5" stroke-linecap="round" stroke-linejoin="round"/>
</svg>
